<?xml version="1.0" encoding="utf-8"?>
<?xml-stylesheet type="text/xsl" href="rss1.xsl"?>
<rss version="2.0" xmlns:atom="http://www.w3.org/2005/Atom" xmlns:content="http://purl.org/rss/1.0/modules/content/" xmlns:dc="http://purl.org/dc/elements/1.1/" xmlns:media="http://search.yahoo.com/mrss/">
<channel>
 <title>Getty</title>
 <link>http://www.gettyimg.com/</link>
 <atom:link href="http://www.gettyimg.com/" rel="self" type="application/rss+xml" />

 
                <item>
                <title><![CDATA[【HD Live Performances】HDTV - Ivete Sangalo - Rock In Rio Lisboa 2024 HDTV H264 1080i MP2-ilya2129]]></title>
                <link><![CDATA[https://sharemania.us/threads/ivete-sangalo-rock-in-rio-lisboa-2024-hdtv-h264-1080i-mp2-ilya2129.247701/]]></link>
                <description><![CDATA[<article>
<blockquote class="messageText SelectQuoteContainer ugc baseHtml">
<div style="text-align: center"><img src="https://i120.fastpic.org/big/2022/0620/9e/704b1806aa4f5dc741d35a32e2158b9e.png?r=1" class="bbCodeImage LbImage" alt="[​IMG]" data-url="https://i120.fastpic.org/big/2022/0620/9e/704b1806aa4f5dc741d35a32e2158b9e.png?r=1" style=""><br>
<br>
<a href="https://fastpic.org/view/123/2024/0623/_1223a528169bbfc1a6d1db8413eea624.png.html" target="_blank" class="externalLink" rel="nofollow"><img src="https://i123.fastpic.org/thumb/2024/0623/24/_1223a528169bbfc1a6d1db8413eea624.jpeg" class="bbCodeImage LbImage" alt="[​IMG]" data-url="https://i123.fastpic.org/thumb/2024/0623/24/_1223a528169bbfc1a6d1db8413eea624.jpeg"></a> <a href="https://fastpic.org/view/123/2024/0623/_533f3f2224857251878c4603f5576060.png.html" target="_blank" class="externalLink" rel="nofollow"><img src="https://i123.fastpic.org/thumb/2024/0623/60/_533f3f2224857251878c4603f5576060.jpeg" class="bbCodeImage LbImage" alt="[​IMG]" data-url="https://i123.fastpic.org/thumb/2024/0623/60/_533f3f2224857251878c4603f5576060.jpeg"></a> <a href="https://fastpic.org/view/123/2024/0623/_45f5f205b7cf9c736948425fca67d65b.png.html" target="_blank" class="externalLink" rel="nofollow"><img src="https://i123.fastpic.org/thumb/2024/0623/5b/_45f5f205b7cf9c736948425fca67d65b.jpeg" class="bbCodeImage LbImage" alt="[​IMG]" data-url="https://i123.fastpic.org/thumb/2024/0623/5b/_45f5f205b7cf9c736948425fca67d65b.jpeg"></a> <a href="https://fastpic.org/view/123/2024/0623/_53edccfd369470a1743bf6156a825a90.png.html" target="_blank" class="externalLink" rel="nofollow"><img src="https://i123.fastpic.org/thumb/2024/0623/90/_53edccfd369470a1743bf6156a825a90.jpeg" class="bbCodeImage LbImage" alt="[​IMG]" data-url="https://i123.fastpic.org/thumb/2024/0623/90/_53edccfd369470a1743bf6156a825a90.jpeg"></a> <a href="https://fastpic.org/view/123/2024/0623/_89064349b2b4adee87900e9a482d3f61.png.html" target="_blank" class="externalLink" rel="nofollow"><img src="https://i123.fastpic.org/thumb/2024/0623/61/_89064349b2b4adee87900e9a482d3f61.jpeg" class="bbCodeImage LbImage" alt="[​IMG]" data-url="https://i123.fastpic.org/thumb/2024/0623/61/_89064349b2b4adee87900e9a482d3f61.jpeg"></a> <a href="https://fastpic.org/view/123/2024/0623/_b16be7a731e7eee48c1452eca6ae2178.png.html" target="_blank" class="externalLink" rel="nofollow"><img src="https://i123.fastpic.org/thumb/2024/0623/78/_b16be7a731e7eee48c1452eca6ae2178.jpeg" class="bbCodeImage LbImage" alt="[​IMG]" data-url="https://i123.fastpic.org/thumb/2024/0623/78/_b16be7a731e7eee48c1452eca6ae2178.jpeg"></a><br>
<br>
​</div><br>
<div class="bbCodeBlock bbCodeCode">
<div class="type">Code:</div>
<pre>General
ID                                       : 1 (0x1)
Complete name                            : C:\Recordings\Ivete Sangalo - Rock In Rio Lisboa 2024 HDTV H264 1080i MP2-ilya2129.ts
Format                                   : MPEG-TS
File size                                : 5.97 GiB
Duration                                 : 1 h 29 min
Overall bit rate mode                    : Variable
Overall bit rate                         : 9 519 kb/s
Frame rate                               : 25.000 FPS

Video
ID                                       : 302 (0x12E)
Menu ID                                  : 1 (0x1)
Format                                   : AVC
Format/Info                              : Advanced Video Codec
Format profile                           : High@L4
Format settings                          : CABAC / 4 Ref Frames
Format settings, CABAC                   : Yes
Format settings, Reference frames        : 4 frames
Codec ID                                 : 27
Duration                                 : 1 h 29 min
Bit rate                                 : 8 855 kb/s
Width                                    : 1 920 pixels
Height                                   : 1 080 pixels
Display aspect ratio                     : 16:9
Active Format Description                : Full frame 16:9 image
Frame rate                               : 25.000 FPS
Standard                                 : Component
Color space                              : YUV
Chroma subsampling                       : 4:2:0
Bit depth                                : 8 bits
Scan type                                : Interlaced
Scan type, store method                  : Separated fields
Scan order                               : Top Field First
Bits/(Pixel*Frame)                       : 0.171
Stream size                              : 5.56 GiB (93%)
Color range                              : Limited
Color primaries                          : BT.709
Transfer characteristics                 : BT.709
Matrix coefficients                      : BT.709

Audio
ID                                       : 303 (0x12F)
Menu ID                                  : 1 (0x1)
Format                                   : MPEG Audio
Format version                           : Version 1
Format profile                           : Layer 2
Codec ID                                 : 3
Duration                                 : 1 h 29 min
Bit rate mode                            : Constant
Bit rate                                 : 192 kb/s
Channel(s)                               : 2 channels
Sampling rate                            : 48.0 kHz
Frame rate                               : 41.667 FPS (1152 SPF)
Compression mode                         : Lossy
Stream size                              : 123 MiB (2%)
Language                                 : Portuguese

</pre>
</div><div style="text-align: center"><br>
<div class="bbCodeBlock bbCodeVfcHH HiddenContent">
<div class="attribution type">Hidden Content:</div>
<blockquote>You must reply before you can see the hidden data contained here.</blockquote>
</div></div>
<div class="messageTextEndMarker">&nbsp;</div>
</blockquote>
</article>]]></description>
                <author><![CDATA[ilya2129]]></author>
                </item>

                
                <item>
                <title><![CDATA[【HD Live Performances】HDTV - Pet Shop Boys - Live @ Isle Of Wight 2024 HDTV H264 1080i DD5.1-ilya2129]]></title>
                <link><![CDATA[https://sharemania.us/threads/pet-shop-boys-live-isle-of-wight-2024-hdtv-h264-1080i-dd5-1-ilya2129.247698/]]></link>
                <description><![CDATA[<article>
<blockquote class="messageText SelectQuoteContainer ugc baseHtml">
obrigada
<div class="messageTextEndMarker">&nbsp;</div>
</blockquote>
</article>]]></description>
                <author><![CDATA[ilya2129]]></author>
                </item>

                
                <item>
                <title><![CDATA[【HD Live Performances】HDTV - Jonas Brothers - Rock In Rio Lisboa 2024 HDTV H264 1080i MP2-ilya2129]]></title>
                <link><![CDATA[https://sharemania.us/threads/jonas-brothers-rock-in-rio-lisboa-2024-hdtv-h264-1080i-mp2-ilya2129.247702/]]></link>
                <description><![CDATA[<article>
<blockquote class="messageText SelectQuoteContainer ugc baseHtml">
<div style="text-align: center"><img src="https://i123.fastpic.org/big/2024/0622/e0/bad436517f8c24d4734ef8f62ee125e0.png?r=1" class="bbCodeImage LbImage" alt="[​IMG]" data-url="https://i123.fastpic.org/big/2024/0622/e0/bad436517f8c24d4734ef8f62ee125e0.png?r=1" style=""><br>
<br>
<a href="https://fastpic.org/view/123/2024/0623/_b83b70cf42710740a3c386d744824443.png.html" target="_blank" class="externalLink" rel="nofollow"><img src="https://i123.fastpic.org/thumb/2024/0623/43/_b83b70cf42710740a3c386d744824443.jpeg" class="bbCodeImage LbImage" alt="[​IMG]" data-url="https://i123.fastpic.org/thumb/2024/0623/43/_b83b70cf42710740a3c386d744824443.jpeg"></a> <a href="https://fastpic.org/view/123/2024/0623/_04720f7615cab984aeb64d2271cbc690.png.html" target="_blank" class="externalLink" rel="nofollow"><img src="https://i123.fastpic.org/thumb/2024/0623/90/_04720f7615cab984aeb64d2271cbc690.jpeg" class="bbCodeImage LbImage" alt="[​IMG]" data-url="https://i123.fastpic.org/thumb/2024/0623/90/_04720f7615cab984aeb64d2271cbc690.jpeg"></a> <a href="https://fastpic.org/view/123/2024/0623/_2e62c3567156f701bcaf594a0c878c17.png.html" target="_blank" class="externalLink" rel="nofollow"><img src="https://i123.fastpic.org/thumb/2024/0623/17/_2e62c3567156f701bcaf594a0c878c17.jpeg" class="bbCodeImage LbImage" alt="[​IMG]" data-url="https://i123.fastpic.org/thumb/2024/0623/17/_2e62c3567156f701bcaf594a0c878c17.jpeg"></a> <a href="https://fastpic.org/view/123/2024/0623/_90e801541e9e1ed2f7a40f971fd0bf5f.png.html" target="_blank" class="externalLink" rel="nofollow"><img src="https://i123.fastpic.org/thumb/2024/0623/5f/_90e801541e9e1ed2f7a40f971fd0bf5f.jpeg" class="bbCodeImage LbImage" alt="[​IMG]" data-url="https://i123.fastpic.org/thumb/2024/0623/5f/_90e801541e9e1ed2f7a40f971fd0bf5f.jpeg"></a> <a href="https://fastpic.org/view/123/2024/0623/_35b2597f35ad918010550f7f929442f9.png.html" target="_blank" class="externalLink" rel="nofollow"><img src="https://i123.fastpic.org/thumb/2024/0623/f9/_35b2597f35ad918010550f7f929442f9.jpeg" class="bbCodeImage LbImage" alt="[​IMG]" data-url="https://i123.fastpic.org/thumb/2024/0623/f9/_35b2597f35ad918010550f7f929442f9.jpeg"></a> <a href="https://fastpic.org/view/123/2024/0623/_d68a4100ab72e7b255f8a914b256c6f5.png.html" target="_blank" class="externalLink" rel="nofollow"><img src="https://i123.fastpic.org/thumb/2024/0623/f5/_d68a4100ab72e7b255f8a914b256c6f5.jpeg" class="bbCodeImage LbImage" alt="[​IMG]" data-url="https://i123.fastpic.org/thumb/2024/0623/f5/_d68a4100ab72e7b255f8a914b256c6f5.jpeg"></a><br>
<br>
​</div><br>
<div class="bbCodeBlock bbCodeCode">
<div class="type">Code:</div>
<pre>General
ID                                       : 1 (0x1)
Complete name                            : C:\Recordings\Pet Shop Boys - Live @ Isle Of Wight 2024 HDTV H264 1080i DD5.1-ilya2129.ts
Format                                   : MPEG-TS
File size                                : 3.96 GiB
Duration                                 : 1 h 17 min
Overall bit rate mode                    : Variable
Overall bit rate                         : 7 264 kb/s
Frame rate                               : 25.000 FPS

Video
ID                                       : 302 (0x12E)
Menu ID                                  : 1 (0x1)
Format                                   : AVC
Format/Info                              : Advanced Video Codec
Format profile                           : High@L4
Format settings                          : CABAC / 3 Ref Frames
Format settings, CABAC                   : Yes
Format settings, Reference frames        : 3 frames
Format settings, Slice count             : 2 slices per frame
Codec ID                                 : 27
Duration                                 : 1 h 17 min
Bit rate                                 : 6 517 kb/s
Width                                    : 1 920 pixels
Height                                   : 1 080 pixels
Display aspect ratio                     : 16:9
Frame rate                               : 25.000 FPS
Color space                              : YUV
Chroma subsampling                       : 4:2:0
Bit depth                                : 8 bits
Scan type                                : MBAFF
Bits/(Pixel*Frame)                       : 0.126
Stream size                              : 3.55 GiB (90%)
Color range                              : Limited
Color primaries                          : BT.709
Transfer characteristics                 : BT.709
Matrix coefficients                      : BT.709

Audio
ID                                       : 303 (0x12F)
Menu ID                                  : 1 (0x1)
Format                                   : AC-3
Format/Info                              : Audio Coding 3
Commercial name                          : Dolby Digital
Codec ID                                 : 129
Duration                                 : 1 h 17 min
Bit rate mode                            : Constant
Bit rate                                 : 384 kb/s
Channel(s)                               : 6 channels
Channel layout                           : L R C LFE Ls Rs
Sampling rate                            : 48.0 kHz
Frame rate                               : 31.250 FPS (1536 SPF)
Compression mode                         : Lossy
Stream size                              : 214 MiB (5%)
Language                                 : English
Service kind                             : Complete Main

</pre>
</div><div style="text-align: center"><br>
<div class="bbCodeBlock bbCodeVfcHH HiddenContent">
<div class="attribution type">Hidden Content:</div>
<blockquote>You must reply before you can see the hidden data contained here.</blockquote>
</div></div>
<div class="messageTextEndMarker">&nbsp;</div>
</blockquote>
</article>]]></description>
                <author><![CDATA[ilya2129]]></author>
                </item>

                
                <item>
                <title><![CDATA[【HD Live Performances】HDTV - Loreen - Tattoo ( Live @ Isle Of Wight 2024 ) HDTV H264 1080i DD5.1-ilya2129]]></title>
                <link><![CDATA[https://sharemania.us/threads/loreen-tattoo-live-isle-of-wight-2024-hdtv-h264-1080i-dd5-1-ilya2129.247699/]]></link>
                <description><![CDATA[<article>
<blockquote class="messageText SelectQuoteContainer ugc baseHtml">
<div style="text-align: center"><img src="https://i120.fastpic.org/big/2022/0620/9e/704b1806aa4f5dc741d35a32e2158b9e.png?r=1" class="bbCodeImage LbImage" alt="[​IMG]" data-url="https://i120.fastpic.org/big/2022/0620/9e/704b1806aa4f5dc741d35a32e2158b9e.png?r=1" style=""><br>
<br>
<a href="https://fastpic.org/view/123/2024/0623/_953d4a7e09a39a9290d478db0ae831ad.png.html" target="_blank" class="externalLink" rel="nofollow"><img src="https://i123.fastpic.org/thumb/2024/0623/ad/_953d4a7e09a39a9290d478db0ae831ad.jpeg" class="bbCodeImage LbImage" alt="[​IMG]" data-url="https://i123.fastpic.org/thumb/2024/0623/ad/_953d4a7e09a39a9290d478db0ae831ad.jpeg"></a> <a href="https://fastpic.org/view/123/2024/0623/_6674670e0fcd3af51a3c9551265b2abb.png.html" target="_blank" class="externalLink" rel="nofollow"><img src="https://i123.fastpic.org/thumb/2024/0623/bb/_6674670e0fcd3af51a3c9551265b2abb.jpeg" class="bbCodeImage LbImage" alt="[​IMG]" data-url="https://i123.fastpic.org/thumb/2024/0623/bb/_6674670e0fcd3af51a3c9551265b2abb.jpeg"></a> <a href="https://fastpic.org/view/123/2024/0623/_ebc5561df3b4928c7fda4f845b864dd7.png.html" target="_blank" class="externalLink" rel="nofollow"><img src="https://i123.fastpic.org/thumb/2024/0623/d7/_ebc5561df3b4928c7fda4f845b864dd7.jpeg" class="bbCodeImage LbImage" alt="[​IMG]" data-url="https://i123.fastpic.org/thumb/2024/0623/d7/_ebc5561df3b4928c7fda4f845b864dd7.jpeg"></a> <a href="https://fastpic.org/view/123/2024/0623/_72dfd9ff8072534f80836fc066740128.png.html" target="_blank" class="externalLink" rel="nofollow"><img src="https://i123.fastpic.org/thumb/2024/0623/28/_72dfd9ff8072534f80836fc066740128.jpeg" class="bbCodeImage LbImage" alt="[​IMG]" data-url="https://i123.fastpic.org/thumb/2024/0623/28/_72dfd9ff8072534f80836fc066740128.jpeg"></a> <a href="https://fastpic.org/view/123/2024/0623/_f63cfc736f5a44af181e4d3215a283bc.png.html" target="_blank" class="externalLink" rel="nofollow"><img src="https://i123.fastpic.org/thumb/2024/0623/bc/_f63cfc736f5a44af181e4d3215a283bc.jpeg" class="bbCodeImage LbImage" alt="[​IMG]" data-url="https://i123.fastpic.org/thumb/2024/0623/bc/_f63cfc736f5a44af181e4d3215a283bc.jpeg"></a> <a href="https://fastpic.org/view/123/2024/0623/_4df84a5a48bd06bbc6ac9779b3516632.png.html" target="_blank" class="externalLink" rel="nofollow"><img src="https://i123.fastpic.org/thumb/2024/0623/32/_4df84a5a48bd06bbc6ac9779b3516632.jpeg" class="bbCodeImage LbImage" alt="[​IMG]" data-url="https://i123.fastpic.org/thumb/2024/0623/32/_4df84a5a48bd06bbc6ac9779b3516632.jpeg"></a><br>
<br>
<br>
​</div><br>
<div class="bbCodeBlock bbCodeCode">
<div class="type">Code:</div>
<pre>General
ID                                       : 1 (0x1)
Complete name                            : C:\Recordings\Jonas Brothers - Rock In Rio Lisboa 2024 HDTV H264 1080i MP2-ilya2129.ts
Format                                   : MPEG-TS
File size                                : 3.73 GiB
Duration                                 : 1 h 24 min
Overall bit rate mode                    : Variable
Overall bit rate                         : 6 325 kb/s
Frame rate                               : 25.000 FPS

Video
ID                                       : 302 (0x12E)
Menu ID                                  : 1 (0x1)
Format                                   : AVC
Format/Info                              : Advanced Video Codec
Format profile                           : High@L4
Format settings                          : CABAC / 4 Ref Frames
Format settings, CABAC                   : Yes
Format settings, Reference frames        : 4 frames
Codec ID                                 : 27
Duration                                 : 1 h 24 min
Bit rate                                 : 5 819 kb/s
Width                                    : 1 920 pixels
Height                                   : 1 080 pixels
Display aspect ratio                     : 16:9
Active Format Description                : Full frame 16:9 image
Frame rate                               : 25.000 FPS
Standard                                 : Component
Color space                              : YUV
Chroma subsampling                       : 4:2:0
Bit depth                                : 8 bits
Scan type                                : Interlaced
Scan type, store method                  : Separated fields
Scan order                               : Top Field First
Bits/(Pixel*Frame)                       : 0.112
Stream size                              : 3.43 GiB (92%)
Color range                              : Limited
Color primaries                          : BT.709
Transfer characteristics                 : BT.709
Matrix coefficients                      : BT.709

Audio
ID                                       : 303 (0x12F)
Menu ID                                  : 1 (0x1)
Format                                   : MPEG Audio
Format version                           : Version 1
Format profile                           : Layer 2
Codec ID                                 : 3
Duration                                 : 1 h 24 min
Bit rate mode                            : Constant
Bit rate                                 : 192 kb/s
Channel(s)                               : 2 channels
Sampling rate                            : 48.0 kHz
Frame rate                               : 41.667 FPS (1152 SPF)
Compression mode                         : Lossy
Delay relative to video                  : -80 ms
Stream size                              : 116 MiB (3%)
Language                                 : Portuguese


</pre>
</div><div style="text-align: center"><br>
<div class="bbCodeBlock bbCodeVfcHH HiddenContent">
<div class="attribution type">Hidden Content:</div>
<blockquote>You must reply before you can see the hidden data contained here.</blockquote>
</div></div>
<div class="messageTextEndMarker">&nbsp;</div>
</blockquote>
</article>]]></description>
                <author><![CDATA[ilya2129]]></author>
                </item>

                
                <item>
                <title><![CDATA[【HD Live Performances】HDTV - Macklemore - Rock In Rio Lisboa 2024 HDTV H264 1080i MP2-ilya2129]]></title>
                <link><![CDATA[https://sharemania.us/threads/macklemore-rock-in-rio-lisboa-2024-hdtv-h264-1080i-mp2-ilya2129.247700/]]></link>
                <description><![CDATA[<article>
<blockquote class="messageText SelectQuoteContainer ugc baseHtml">
<div style="text-align: center"><img src="https://i123.fastpic.org/big/2024/0622/e0/bad436517f8c24d4734ef8f62ee125e0.png?r=1" class="bbCodeImage LbImage" alt="[​IMG]" data-url="https://i123.fastpic.org/big/2024/0622/e0/bad436517f8c24d4734ef8f62ee125e0.png?r=1" style=""><br>
<br>
<a href="https://fastpic.org/view/123/2024/0623/_51ab04ed62b3a4a2c1033298361aafd7.png.html" target="_blank" class="externalLink" rel="nofollow"><img src="https://i123.fastpic.org/thumb/2024/0623/d7/_51ab04ed62b3a4a2c1033298361aafd7.jpeg" class="bbCodeImage LbImage" alt="[​IMG]" data-url="https://i123.fastpic.org/thumb/2024/0623/d7/_51ab04ed62b3a4a2c1033298361aafd7.jpeg"></a> <a href="https://fastpic.org/view/123/2024/0623/_9c06f979932811313aa9342ecf68d85c.png.html" target="_blank" class="externalLink" rel="nofollow"><img src="https://i123.fastpic.org/thumb/2024/0623/5c/_9c06f979932811313aa9342ecf68d85c.jpeg" class="bbCodeImage LbImage" alt="[​IMG]" data-url="https://i123.fastpic.org/thumb/2024/0623/5c/_9c06f979932811313aa9342ecf68d85c.jpeg"></a> <a href="https://fastpic.org/view/123/2024/0623/_4b95d6eebb02b9802a571a6460da0066.png.html" target="_blank" class="externalLink" rel="nofollow"><img src="https://i123.fastpic.org/thumb/2024/0623/66/_4b95d6eebb02b9802a571a6460da0066.jpeg" class="bbCodeImage LbImage" alt="[​IMG]" data-url="https://i123.fastpic.org/thumb/2024/0623/66/_4b95d6eebb02b9802a571a6460da0066.jpeg"></a> <a href="https://fastpic.org/view/123/2024/0623/_a48ac1815bd41d596afbc1d6498a320d.png.html" target="_blank" class="externalLink" rel="nofollow"><img src="https://i123.fastpic.org/thumb/2024/0623/0d/_a48ac1815bd41d596afbc1d6498a320d.jpeg" class="bbCodeImage LbImage" alt="[​IMG]" data-url="https://i123.fastpic.org/thumb/2024/0623/0d/_a48ac1815bd41d596afbc1d6498a320d.jpeg"></a> <a href="https://fastpic.org/view/123/2024/0623/_db545b04bff76784e74b6a7db80998d0.png.html" target="_blank" class="externalLink" rel="nofollow"><img src="https://i123.fastpic.org/thumb/2024/0623/d0/_db545b04bff76784e74b6a7db80998d0.jpeg" class="bbCodeImage LbImage" alt="[​IMG]" data-url="https://i123.fastpic.org/thumb/2024/0623/d0/_db545b04bff76784e74b6a7db80998d0.jpeg"></a> <a href="https://fastpic.org/view/123/2024/0623/_eff5d3dddbdfaabda5350a77ecd8b948.png.html" target="_blank" class="externalLink" rel="nofollow"><img src="https://i123.fastpic.org/thumb/2024/0623/48/_eff5d3dddbdfaabda5350a77ecd8b948.jpeg" class="bbCodeImage LbImage" alt="[​IMG]" data-url="https://i123.fastpic.org/thumb/2024/0623/48/_eff5d3dddbdfaabda5350a77ecd8b948.jpeg"></a><br>
<br>
​</div><br>
<div class="bbCodeBlock bbCodeCode">
<div class="type">Code:</div>
<pre>General
ID                                       : 1 (0x1)
Complete name                            : C:\Recordings\Loreen - Tattoo ( Live @ Isle Of Wight 2024 ) HDTV H264 1080i DD5.1-ilya2129.ts
Format                                   : MPEG-TS
File size                                : 156 MiB
Duration                                 : 4 min 30 s
Overall bit rate mode                    : Variable
Overall bit rate                         : 4 848 kb/s
Frame rate                               : 25.000 FPS

Video
ID                                       : 302 (0x12E)
Menu ID                                  : 1 (0x1)
Format                                   : AVC
Format/Info                              : Advanced Video Codec
Format profile                           : High@L4
Format settings                          : CABAC / 3 Ref Frames
Format settings, CABAC                   : Yes
Format settings, Reference frames        : 3 frames
Format settings, GOP                     : M=4, N=32
Format settings, Slice count             : 2 slices per frame
Codec ID                                 : 27
Duration                                 : 4 min 30 s
Bit rate                                 : 4 221 kb/s
Width                                    : 1 920 pixels
Height                                   : 1 080 pixels
Display aspect ratio                     : 16:9
Frame rate                               : 25.000 FPS
Color space                              : YUV
Chroma subsampling                       : 4:2:0
Bit depth                                : 8 bits
Scan type                                : MBAFF
Scan type, store method                  : Separated fields
Scan order                               : Top Field First
Bits/(Pixel*Frame)                       : 0.081
Time code of first frame                 : 21:28:08
Stream size                              : 136 MiB (87%)
Color range                              : Limited
Color primaries                          : BT.709
Transfer characteristics                 : BT.709
Matrix coefficients                      : BT.709

Audio
ID                                       : 303 (0x12F)
Menu ID                                  : 1 (0x1)
Format                                   : AC-3
Format/Info                              : Audio Coding 3
Commercial name                          : Dolby Digital
Codec ID                                 : 129
Duration                                 : 4 min 30 s
Bit rate mode                            : Constant
Bit rate                                 : 384 kb/s
Channel(s)                               : 6 channels
Channel layout                           : L R C LFE Ls Rs
Sampling rate                            : 48.0 kHz
Frame rate                               : 31.250 FPS (1536 SPF)
Compression mode                         : Lossy
Stream size                              : 12.4 MiB (8%)
Language                                 : English
Service kind                             : Complete Main


</pre>
</div><div style="text-align: center"><br>
<div class="bbCodeBlock bbCodeVfcHH HiddenContent">
<div class="attribution type">Hidden Content:</div>
<blockquote>You must reply before you can see the hidden data contained here.</blockquote>
</div></div>
<div class="messageTextEndMarker">&nbsp;</div>
</blockquote>
</article>]]></description>
                <author><![CDATA[ilya2129]]></author>
                </item>

                
                <item>
                <title><![CDATA[【Requests】[REQ AUD] - Joni Mitchell - The Asylum Albums (1976-1980)]]></title>
                <link><![CDATA[https://sharemania.us/threads/joni-mitchell-the-asylum-albums-1976-1980.247697/]]></link>
                <description><![CDATA[<article>
<blockquote class="messageText SelectQuoteContainer ugc baseHtml">
<div style="text-align: center"><img src="https://i120.fastpic.org/big/2022/0620/9e/704b1806aa4f5dc741d35a32e2158b9e.png?r=1" class="bbCodeImage LbImage" alt="[​IMG]" data-url="https://i120.fastpic.org/big/2022/0620/9e/704b1806aa4f5dc741d35a32e2158b9e.png?r=1" style=""><br>
<br>
<a href="https://fastpic.org/view/123/2024/0623/_75eedf36712637c47561f47026e7de80.png.html" target="_blank" class="externalLink" rel="nofollow"><img src="https://i123.fastpic.org/thumb/2024/0623/80/_75eedf36712637c47561f47026e7de80.jpeg" class="bbCodeImage LbImage" alt="[​IMG]" data-url="https://i123.fastpic.org/thumb/2024/0623/80/_75eedf36712637c47561f47026e7de80.jpeg"></a> <a href="https://fastpic.org/view/123/2024/0623/_74e6975ec36418c6a2d213b72835cd4c.png.html" target="_blank" class="externalLink" rel="nofollow"><img src="https://i123.fastpic.org/thumb/2024/0623/4c/_74e6975ec36418c6a2d213b72835cd4c.jpeg" class="bbCodeImage LbImage" alt="[​IMG]" data-url="https://i123.fastpic.org/thumb/2024/0623/4c/_74e6975ec36418c6a2d213b72835cd4c.jpeg"></a> <a href="https://fastpic.org/view/123/2024/0623/_6f8a1009afeb5f2f62c008d9af3b9587.png.html" target="_blank" class="externalLink" rel="nofollow"><img src="https://i123.fastpic.org/thumb/2024/0623/87/_6f8a1009afeb5f2f62c008d9af3b9587.jpeg" class="bbCodeImage LbImage" alt="[​IMG]" data-url="https://i123.fastpic.org/thumb/2024/0623/87/_6f8a1009afeb5f2f62c008d9af3b9587.jpeg"></a> <a href="https://fastpic.org/view/123/2024/0623/_6875e22a47e9ef486b8c6237abaef3ab.png.html" target="_blank" class="externalLink" rel="nofollow"><img src="https://i123.fastpic.org/thumb/2024/0623/ab/_6875e22a47e9ef486b8c6237abaef3ab.jpeg" class="bbCodeImage LbImage" alt="[​IMG]" data-url="https://i123.fastpic.org/thumb/2024/0623/ab/_6875e22a47e9ef486b8c6237abaef3ab.jpeg"></a> <a href="https://fastpic.org/view/123/2024/0623/_a3343c08ce66c4141d4965fb4b267fcd.png.html" target="_blank" class="externalLink" rel="nofollow"><img src="https://i123.fastpic.org/thumb/2024/0623/cd/_a3343c08ce66c4141d4965fb4b267fcd.jpeg" class="bbCodeImage LbImage" alt="[​IMG]" data-url="https://i123.fastpic.org/thumb/2024/0623/cd/_a3343c08ce66c4141d4965fb4b267fcd.jpeg"></a> <a href="https://fastpic.org/view/123/2024/0623/_a85fc9c0a4cdbc4e6c7369188173cb83.png.html" target="_blank" class="externalLink" rel="nofollow"><img src="https://i123.fastpic.org/thumb/2024/0623/83/_a85fc9c0a4cdbc4e6c7369188173cb83.jpeg" class="bbCodeImage LbImage" alt="[​IMG]" data-url="https://i123.fastpic.org/thumb/2024/0623/83/_a85fc9c0a4cdbc4e6c7369188173cb83.jpeg"></a><br>
<br>
​</div><br>
<div class="bbCodeBlock bbCodeCode">
<div class="type">Code:</div>
<pre>General
ID                                       : 1 (0x1)
Complete name                            : C:\Recordings\Macklemore - Rock In Rio Lisboa 2024 HDTV H264 1080i MP2-ilya2129.ts
Format                                   : MPEG-TS
File size                                : 3.18 GiB
Duration                                 : 1 h 2 min
Overall bit rate mode                    : Variable
Overall bit rate                         : 7 341 kb/s
Frame rate                               : 25.000 FPS

Video
ID                                       : 302 (0x12E)
Menu ID                                  : 1 (0x1)
Format                                   : AVC
Format/Info                              : Advanced Video Codec
Format profile                           : High@L4
Format settings                          : CABAC / 4 Ref Frames
Format settings, CABAC                   : Yes
Format settings, Reference frames        : 4 frames
Codec ID                                 : 27
Duration                                 : 1 h 2 min
Bit rate                                 : 6 785 kb/s
Width                                    : 1 920 pixels
Height                                   : 1 080 pixels
Display aspect ratio                     : 16:9
Active Format Description                : Full frame 16:9 image
Frame rate                               : 25.000 FPS
Standard                                 : Component
Color space                              : YUV
Chroma subsampling                       : 4:2:0
Bit depth                                : 8 bits
Scan type                                : Interlaced
Scan type, store method                  : Separated fields
Scan order                               : Top Field First
Bits/(Pixel*Frame)                       : 0.131
Stream size                              : 2.94 GiB (92%)
Color range                              : Limited
Color primaries                          : BT.709
Transfer characteristics                 : BT.709
Matrix coefficients                      : BT.709

Audio
ID                                       : 303 (0x12F)
Menu ID                                  : 1 (0x1)
Format                                   : MPEG Audio
Format version                           : Version 1
Format profile                           : Layer 2
Codec ID                                 : 3
Duration                                 : 1 h 2 min
Bit rate mode                            : Constant
Bit rate                                 : 192 kb/s
Channel(s)                               : 2 channels
Sampling rate                            : 48.0 kHz
Frame rate                               : 41.667 FPS (1152 SPF)
Compression mode                         : Lossy
Delay relative to video                  : -120 ms
Stream size                              : 85.2 MiB (3%)
Language                                 : Portuguese
</pre>
</div><div style="text-align: center"><br>
<div class="bbCodeBlock bbCodeVfcHH HiddenContent">
<div class="attribution type">Hidden Content:</div>
<blockquote>You must reply before you can see the hidden data contained here.</blockquote>
</div></div>
<div class="messageTextEndMarker">&nbsp;</div>
</blockquote>
</article>]]></description>
                <author><![CDATA[-david-]]></author>
                </item>

                </channel></rss>